<svg width="13" height="19" viewBox="0 0 13 19" fill="none" xmlns="http://www.w3.org/2000/svg">
<path d="M3.11262 16.2942V18.0249C3.11262 18.216 3.26769 18.3711 3.45877 18.3711H4.84338C4.93519 18.3711 5.02324 18.3346 5.08815 18.2697C5.15307 18.2048 5.18954 18.1167 5.18954 18.0249V16.2942H5.88185V18.0249C5.88185 18.216 6.03692 18.3711 6.228 18.3711H7.61262C7.70442 18.3711 7.79247 18.3346 7.85738 18.2697C7.9223 18.2048 7.95877 18.1167 7.95877 18.0249V16.2942H8.07508C10.8332 16.2942 12.8049 14.8639 12.8049 12.3896C12.8049 10.3099 11.4106 9.17309 9.77815 9.01109V8.88925C11.1212 8.55417 12.1085 7.54063 12.1085 5.85694C12.1085 3.73571 10.5162 2.44802 8.08615 2.44802H7.95877V0.717248C7.95877 0.625442 7.9223 0.537396 7.85738 0.47248C7.79247 0.407563 7.70442 0.371094 7.61262 0.371094H6.228C6.13619 0.371094 6.04815 0.407563 5.98323 0.47248C5.91832 0.537396 5.88185 0.625442 5.88185 0.717248V2.44802H5.08846V0.717248C5.08846 0.625442 5.05199 0.537396 4.98708 0.47248C4.92216 0.407563 4.83411 0.371094 4.74231 0.371094H3.45877C3.36696 0.371094 3.27892 0.407563 3.214 0.47248C3.14908 0.537396 3.11262 0.625442 3.11262 0.717248V2.44802L0.346154 2.46325C0.254348 2.46325 0.166302 2.49972 0.101386 2.56463C0.0364694 2.62955 0 2.7176 0 2.8094V4.17879C0 4.36848 0.152308 4.52494 0.343384 4.52494L1.38877 4.51802C1.66298 4.51985 1.92535 4.63006 2.1186 4.82461C2.31186 5.01916 2.42031 5.28226 2.42031 5.55648V13.1788C2.42031 13.4542 2.3109 13.7183 2.11615 13.9131C1.9214 14.1078 1.65726 14.2172 1.38185 14.2172L0.346154 14.2325C0.254348 14.2325 0.166302 14.2689 0.101386 14.3339C0.0364694 14.3988 0 14.4868 0 14.5786V15.9632C0 16.1543 0.155077 16.3094 0.346154 16.3094L3.11262 16.2942ZM5.08846 4.50694H7.46862C8.72308 4.50694 9.45969 5.19648 9.45969 6.32355C9.45969 7.52955 8.66354 8.2094 6.86077 8.2094H5.08846V4.50694ZM5.08846 10.116H7.63615C9.21046 10.116 10.0675 10.9191 10.0675 12.2262C10.0675 13.5457 9.20077 14.2339 7.07954 14.2339H5.08846V10.1174V10.116Z" fill="#F7B502"/>
</svg>
