<svg width="25" height="26" viewBox="0 0 25 26" fill="none" xmlns="http://www.w3.org/2000/svg">
<g filter="url(#filter0_d_0_112)">
<path d="M17.7423 11.0444C17.2049 10.6583 16.5701 10.4935 15.9332 10.402C15.4031 10.3305 14.6418 9.89628 14.7438 8.92527C14.8199 8.20144 15.4657 7.67853 16.2223 7.72893C16.8643 7.77187 17.5195 7.74261 18.1253 7.47359C18.9478 7.1073 19.5912 6.42941 19.9142 5.5889C20.2371 4.74839 20.2131 3.81405 19.8474 2.99124C19.478 2.16751 18.7968 1.52399 17.9534 1.20186C17.1101 0.87973 16.1734 0.905309 15.3488 1.27298C14.8033 1.51406 14.3313 1.89529 13.9808 2.37792C13.6304 2.86055 13.414 3.42736 13.3536 4.02074C13.2848 4.67583 13.4562 5.30097 13.6942 5.89581C13.8956 6.39073 13.9243 7.27991 13.0219 7.68283C12.344 7.98158 11.5704 7.66927 11.2426 6.99039C10.9652 6.41543 10.6147 5.87009 10.0778 5.48403C8.56005 4.37957 6.43233 4.71707 5.33643 6.23113C4.80795 6.96024 4.59058 7.86935 4.73208 8.75866C4.87358 9.64797 5.36238 10.4447 6.09106 10.9738C6.5736 11.3226 7.13912 11.5389 7.73127 11.6011C8.32343 11.6634 8.92155 11.5694 9.46608 11.3285C10.0691 11.0613 10.5253 10.6012 10.9161 10.097C11.2358 9.68547 11.9875 9.19517 12.8005 9.78861C13.4028 10.2194 13.5149 11.0488 13.0863 11.6794C12.7335 12.2009 12.4325 12.7846 12.3637 13.4396C12.1677 15.3038 13.521 16.971 15.3839 17.1694C16.279 17.2631 17.1746 16.9975 17.8739 16.4312C18.5733 15.8649 19.0192 15.044 19.1137 14.1491C19.179 13.5567 19.0864 12.9575 18.8455 12.4123C18.6046 11.8672 18.2238 11.3954 17.7417 11.0449L17.7423 11.0444Z" fill="#D34F8B"/>
</g>
<defs>
<filter id="filter0_d_0_112" x="0.68988" y="0.977478" width="23.4503" height="24.2104" filterUnits="userSpaceOnUse" color-interpolation-filters="sRGB">
<feFlood flood-opacity="0" result="BackgroundImageFix"/>
<feColorMatrix in="SourceAlpha" type="matrix" values="0 0 0 0 0 0 0 0 0 0 0 0 0 0 0 0 0 0 127 0" result="hardAlpha"/>
<feOffset dy="4"/>
<feGaussianBlur stdDeviation="2"/>
<feComposite in2="hardAlpha" operator="out"/>
<feColorMatrix type="matrix" values="0 0 0 0 0 0 0 0 0 0 0 0 0 0 0 0 0 0 0.25 0"/>
<feBlend mode="normal" in2="BackgroundImageFix" result="effect1_dropShadow_0_112"/>
<feBlend mode="normal" in="SourceGraphic" in2="effect1_dropShadow_0_112" result="shape"/>
</filter>
</defs>
</svg>
